<svg data-name="SEPARATEUR - Droite" xmlns="http://www.w3.org/2000/svg" width="1600" height="300" viewBox="0 0 1600 300"><defs><clipPath id="a"><path data-name="Rectangle 1255" fill="#fff" stroke="#707070" d="M93.58.5h1600v300h-1600z"/></clipPath></defs><g data-name="Groupe de masques 32" transform="translate(-93.58 -.5)" clip-path="url(#a)"><g data-name="Groupe 3827"><path data-name="Tracé 1973" d="M315.694 234.073c-44.595-1.562-89.727-4.463-136.156-7.448-58.091-3.735-118.16-7.594-178.53-8.683l.902-49.973c61.521 1.11 122.176 5.009 180.834 8.78 91.182 5.86 177.307 11.396 262.72 6.854 120.761-6.42 235.773-24.154 368.948-44.687 126.692-19.536 270.288-41.678 440.183-56.224 339.504-29.067 557.96-16.197 560.126-16.064l-3.068 49.887c-2.134-.131-217.293-12.75-552.795 15.976-168.211 14.4-310.92 36.406-436.83 55.82-128.902 19.876-250.654 38.65-373.912 45.202-44.092 2.344-87.993 2.116-132.422.56Z" fill="#034E75"/><path data-name="Tracé 1949" d="M97.581 0h1600v300h-1600Z" fill="none"/><path data-name="Tracé 1970" d="M1305.186 270.553c-343.985 6.005-730.498-64.216-993.962-112.082C171.09 133.012 60.406 112.903 15.965 115.16L13.43 65.223c50.221-2.548 157.815 16.999 306.73 44.054 261.495 47.508 645.809 117.326 984.316 111.417 147.31-2.571 285.89-19.47 401.993-58.788l16.038 47.358c-121.215 41.05-265.105 58.633-417.32 61.29Z" fill="#5CA201"/><path data-name="Tracé 1972" d="m449.957 183.34 190.114 31.625 176.135-25.707-174.805-24.716Z" fill="#4d8306"/></g></g></svg>